<?xml version="1.0" standalone="no"?><svg t="1684747365312" class="icon" viewBox="0 0 1228 1024" version="1.1" xmlns="http://www.w3.org/2000/svg" p-id="2290" xmlns:xlink="http://www.w3.org/1999/xlink" width="20" height="20"><path d="M618.62559529 80.65359473c220.62628383 0.36197915 405.11800034 167.76828039 426.85183101 387.322201 21.73232243 219.55241239-126.35786716 419.88222436-342.63135186 463.49015263-216.27348473 43.6094365-430.42486674-83.67751044-495.47251759-294.49566789-65.04614261-210.81966571 40.15555223-436.64035015 243.40231275-522.47163647A428.55313295 428.55313295 0 0 1 618.63766129 80.64152876l-0.012066 0.01206597z m0.012066-108.605807C320.46338037-27.9401463 78.69751497 213.78952122 78.69751497 511.98793404s241.76586542 539.8918824 539.92808032 539.8918824 539.92808033-241.70553556 539.92808032-539.8918824-241.72966749-539.92808033-539.92808032-539.92808034l0.012066-0.01206597" fill="#d81e06" p-id="2291"></path><path d="M618.62559529 511.98793404z m-230.88235937 0c0 127.51318389 103.36917549 230.88235936 230.88235937 230.88235936s230.88235936-103.36917549 230.88235937-230.88235936-103.36917549-230.88235936-230.88235937-230.88235939-230.88235936 103.36917549-230.88235937 230.88235939" fill="red" p-id="2292"></path></svg>