<?xml version="1.0" standalone="no"?><svg t="1682230113923" class="icon" viewBox="0 0 1024 1024" version="1.1" xmlns="http://www.w3.org/2000/svg" p-id="1338" xmlns:xlink="http://www.w3.org/1999/xlink" width="20" height="20"><path d="M272.57514667 854.53482667c-64.07964445 0-116.50844445-52.4288-116.50844445-116.50844445s52.4288-116.50844445 116.50844445-116.50844444 116.50844445 52.4288 116.50844444 116.50844444-52.4288 116.50844445-116.50844444 116.50844445z m478.26716444 0c-64.07964445 0-116.50844445-52.4288-116.50844444-116.50844445s52.4288-116.50844445 116.50844444-116.50844444 116.50844445 52.4288 116.50844444 116.50844444-52.4288 116.50844445-116.50844444 116.50844445z" fill="#1afa29" p-id="1339"></path><path d="M779.96942222 349.47072l-4.07779555-1.16508445c-1.74762667-0.58254222-2.91271111-1.74762667-4.07779556-3.49525333l-1.74762666-3.49525333c-22.13660445-43.69066667-97.28455111-145.63555555-325.64110223-145.63555556-146.21809778 0-226.60892445 64.07964445-269.13450667 117.67352889-32.62236445 40.19541333-47.76846222 82.13845333-53.59388444 103.10997333l-1.16508444 4.07779556c-0.58254222 1.74762667-1.74762667 3.49525333-3.49525334 4.07779556l-4.07779555 2.33016888c-15.72864 8.73813333-58.83676445 34.36999111-58.83676445 93.20675556v217.87079111c0 6.99050667 5.82542222 13.39847111 13.39847112 13.39847111H104.22044445c3.49525333 0 6.99050667-2.91271111 6.40796444-6.99050666v-6.40796445c0-89.12896 72.23523555-161.94673778 161.94673778-161.94673777s161.94673778 72.23523555 161.94673778 161.94673777v6.40796445c0 3.49525333 2.91271111 6.99050667 6.40796444 6.99050666h142.14030222c3.49525333 0 6.99050667-2.91271111 6.40796444-6.99050666v-6.40796445c0-89.12896 72.23523555-161.94673778 161.94673778-161.94673777 89.12896 0 161.94673778 72.23523555 161.94673778 161.94673777v6.40796445c0 3.49525333 2.91271111 6.99050667 6.40796444 6.99050666h29.70965334c11.06830222 0 19.80643555-8.73813333 19.80643556-19.80643555V540.54456889c0-125.82912-146.21809778-178.25792-189.32622223-191.07384889z m-357.09838222 69.90506667c0 22.13660445-7.57304889 37.86524445-32.03982222 37.86524444H196.26211555c-19.22389333 0-25.63185778-9.90321778-19.22389333-31.45728 6.99050667-19.22389333 13.39847111-47.18592 35.53507556-75.14794666 32.62236445-41.94304 93.78929778-90.87658667 200.39452444-98.44963556 5.24288-0.58254222 9.32067555 2.91271111 9.32067556 8.73813333v158.45148445z m185.83096889 37.86524444h-107.18776889c-30.29219555 0-34.36999111-29.70965333-34.95253333-33.20490666V262.67192889c0-9.32067555 7.57304889-11.65084445 9.32067555-11.65084444 135.14979555 4.07779555 195.15164445 53.01134222 225.44384 90.87658666 11.65084445 14.56355555 14.56355555 23.88423111 19.80643556 38.44778667 0.58254222 1.74762667 1.74762667 3.49525333 3.49525333 4.07779555 24.46677333 13.39847111 1.74762667 72.81777778-115.92590222 72.81777778z m178.25792 78.06065778h-71.65269334c-13.39847111 0-25.04931555-10.48576-25.04931555-23.30168889s11.06830222-23.30168889 25.04931555-23.30168889h71.65269334c13.39847111 0 25.04931555 10.48576 25.04931556 23.30168889s-11.65084445 23.30168889-25.04931556 23.30168889z" fill="#1afa29" p-id="1340"></path></svg>