<?xml version="1.0" standalone="no"?><svg t="1684135296371" class="icon" viewBox="0 0 1024 1024" version="1.1" xmlns="http://www.w3.org/2000/svg" p-id="1368" xmlns:xlink="http://www.w3.org/1999/xlink" width="200" height="200"><path d="M325.13706667 282.112c-20.6848 0-40.51626667 8.192-55.12533334 22.76693333l-123.47733333 123.22133334A77.58506667 77.58506667 0 0 0 123.73333333 482.98666667l0 198.31466666a40.4992 40.4992 0 0 0 40.58453334 40.41386667l63.88053333 0a127.55626667 127.55626667 0 0 1 122.89706667-93.184c58.53866666 0 107.94666667 39.424 122.89706666 93.184l127.77813334 0a127.55626667 127.55626667 0 0 1 122.89706666-93.184c58.53866666 0 107.94666667 39.424 122.88 93.184l7.86773334 0a40.4992 40.4992 0 0 0 40.58453333-40.41386667l0-117.2992L535.552 564.00213332a71.45813333 71.45813333 0 0 1-71.49226667-71.42399999L464.05973333 282.112l-138.92266666 0z m-103.35573333-25.5488a146.3296 146.3296 0 0 1 103.35573333-42.71786666l173.056-1e-8a34.13333333 34.13333333 0 0 1 34.13333333 34.13333334l0 244.61653333c0 1.67253333 1.36533333 3.15733333 3.2256 3.15733333L930.13333333 495.75253333a34.13333333 34.13333333 0 0 1 34.13333334 34.13333334l0 151.43253333c0 60.09173333-48.81066667 108.68053333-108.8512 108.68053333l-37.35893335 0a34.13333333 34.13333333 0 0 1-34.13333332-34.13333333c0-32.54613333-26.45333333-59.05066667-59.25546667-59.05066667a59.15306667 59.15306667 0 0 0-59.25546666 59.05066667 34.13333333 34.13333333 0 0 1-34.13333334 34.13333333L444.48426668 789.99893333a34.13333333 34.13333333 0 0 1-34.13333335-34.13333333c0-32.54613333-26.45333333-59.05066667-59.25546666-59.05066667a59.15306667 59.15306667 0 0 0-59.25546667 59.05066667 34.13333333 34.13333333 0 0 1-34.13333333 34.13333333l-93.3888 1e-8c-60.0576 0-108.8512-48.5888-108.8512-108.68053335l0-198.31466667c0-38.74133333 15.42826667-75.86133333 42.83733333-103.23626665l123.47733334-123.20426667z" fill="#d81e06" p-id="1369"></path><path d="M349.3888 695.46666667A59.15306667 59.15306667 0 0 0 290.13333333 754.51733333c0 32.5632 26.45333333 59.06773333 59.25546667 59.06773334a59.15306667 59.15306667 0 0 0 59.25546667-59.05066667c0-32.5632-26.45333333-59.06773333-59.25546667-59.06773333zM221.86666667 754.51733333c0-70.38293333 57.17333333-127.31733333 127.52213333-127.31733333 70.36586668 0 127.52213333 56.9344 127.52213333 127.31733333 0 70.40000001-57.15626667 127.3344-127.52213333 127.3344S221.86666667 824.91733333 221.86666667 754.53440001zM724.85546667 695.46666667A59.15306667 59.15306667 0 0 0 665.6 754.51733333c0 32.5632 26.45333333 59.06773333 59.25546667 59.06773334a59.15306667 59.15306667 0 0 0 59.25546666-59.05066667c0-32.5632-26.45333333-59.06773333-59.25546666-59.06773333zM597.33333333 754.51733333c0-70.38293333 57.17333333-127.31733333 127.52213334-127.31733333 70.36586668 0 127.52213333 56.9344 127.52213333 127.31733333 0 70.40000001-57.15626667 127.3344-127.52213333 127.33440001S597.33333333 824.91733333 597.33333333 754.5344zM334.71146668 347.0848a34.13333333 34.13333333 0 0 1-0.05120002 48.2816l-75.87839999 75.70773333a34.13333333 34.13333333 0 1 1-48.2304-48.31573333l75.89546666-75.7248a34.13333333 34.13333333 0 0 1 48.26453335 0.0512zM465.06666667 166.4a68.26666667 68.26666667 0 0 1 68.26666666-68.26666667L896.00000001 98.13333333a68.26666667 68.26666667 0 0 1 68.26666666 68.26666667l0 358.4a34.13333333 34.13333333 0 0 1-34.13333334 34.13333333L533.33333333 558.93333333a68.26666667 68.26666667 0 0 1-68.26666666-68.26666666l0-324.26666667z m430.93333333 0L533.33333333 166.4l0 324.26666667L896 490.66666667l0-324.26666667z" fill="#d81e06" p-id="1370"></path><path d="M704 200.53333333a34.13333333 34.13333333 0 0 1 34.13333333 34.13333334l0 87.6032 79.65013334 0a34.13333333 34.13333333 0 0 1 0 68.26666666L704 390.53653333a34.13333333 34.13333333 0 0 1-34.13333333-34.13333334L669.86666667 234.66666667a34.13333333 34.13333333 0 0 1 34.13333333-34.13333334z" fill="#d81e06" p-id="1371"></path></svg>